<?xml version="1.0" encoding="UTF-8"?>
<svg version="1.1" xmlns="http://www.w3.org/2000/svg" width="512" height="512">
<path d="M0 0 C168.96 0 337.92 0 512 0 C512 168.96 512 337.92 512 512 C343.04 512 174.08 512 0 512 C0 343.04 0 174.08 0 0 Z " fill="#008300" transform="translate(0,0)"/>
<path d="M0 0 C0 1.32 0 2.64 0 4 C-4.09960023 6.09628084 -8.18397986 8.11155938 -12.4296875 9.89453125 C-13.161875 10.21099609 -13.8940625 10.52746094 -14.6484375 10.85351562 C-16.14843793 11.49956844 -17.6566325 12.1268811 -19.171875 12.73632812 C-23.26907596 14.4611008 -23.26907596 14.4611008 -25.95019531 17.82177734 C-26.60807173 19.95379068 -26.60807173 19.95379068 -27 23 C-26.34 23 -25.68 23 -25 23 C-25.33 30.26 -25.66 37.52 -26 45 C-25.34 45 -24.68 45 -24 45 C-24.33 47.64 -24.66 50.28 -25 53 C-24.34 53 -23.68 53 -23 53 C-22.814375 54.5778125 -22.814375 54.5778125 -22.625 56.1875 C-22.17861347 59.85417259 -22.17861347 59.85417259 -20.9375 62.5 C-19.72259737 65.73974034 -19.8655218 68.57080601 -20 72 C-19.01 72 -18.02 72 -17 72 C-16.49384702 73.26839526 -15.99530901 74.53983102 -15.5 75.8125 C-15.2215625 76.52019531 -14.943125 77.22789062 -14.65625 77.95703125 C-14 80 -14 80 -14 83 C-13.34 83 -12.68 83 -12 83 C-12 83.66 -12 84.32 -12 85 C-11.34 85 -10.68 85 -10 85 C-10 86.32 -10 87.64 -10 89 C-9.34 89 -8.68 89 -8 89 C-6.875 94.75 -6.875 94.75 -8 97 C-7.01 97 -6.02 97 -5 97 C-4.34 98.98 -3.68 100.96 -3 103 C7.09642945 99.68260175 16.41010845 94.99347597 25.7578125 89.9921875 C26.37422607 89.66903564 26.99063965 89.34588379 27.62573242 89.01293945 C29.33826974 88.11455544 31.04246811 87.20032705 32.74609375 86.28515625 C36.38519188 84.84786539 39.12210964 84.7597767 43 85 C43 86.32 43 87.64 43 89 C42.44054687 89.20753906 41.88109375 89.41507812 41.3046875 89.62890625 C32.44210843 93.03430239 24.08932455 97.39602159 15.6484375 101.71484375 C14.60945313 102.24207031 13.57046875 102.76929688 12.5 103.3125 C11.5821875 103.78300781 10.664375 104.25351563 9.71875 104.73828125 C6.86556051 106.06239074 3.99956935 107.06042901 1 108 C1.2784375 109.8871875 1.2784375 109.8871875 1.5625 111.8125 C2.00732761 114.82744268 1.99843846 116.00468461 1 119 C-0.32 119 -1.64 119 -3 119 C-4.4606285 116.35261084 -5 115.10551666 -5 112 C-5.66 112 -6.32 112 -7 112 C-7 111.34 -7 110.68 -7 110 C-7.639375 110.28875 -8.27875 110.5775 -8.9375 110.875 C-11.40455354 111.78126457 -13.57071288 112.3613911 -16.125 112.875 C-19.55119899 113.59955684 -22.7252053 114.57325398 -26 115.8125 C-30.85009072 117.62529837 -35.73664667 119.23921414 -40.6875 120.75 C-41.38810547 120.97276611 -42.08871094 121.19553223 -42.81054688 121.42504883 C-47.69373408 122.88759326 -51.90391527 123.20590241 -57 123 C-57 121.68 -57 120.36 -57 119 C-56.34402832 118.823479 -55.68805664 118.64695801 -55.01220703 118.46508789 C-52.04920594 117.66642752 -49.08709738 116.8645053 -46.125 116.0625 C-45.09246094 115.78470703 -44.05992187 115.50691406 -42.99609375 115.22070312 C-42.00996094 114.95322266 -41.02382813 114.68574219 -40.0078125 114.41015625 C-39.09660645 114.16402588 -38.18540039 113.91789551 -37.24658203 113.66430664 C-34.99185389 113.06894116 -34.99185389 113.06894116 -33 112 C-34.81926613 103.2187378 -36.69527683 94.56758251 -39.5625 86.0625 C-41.78784781 79.40068942 -42.9456162 72.80432464 -43.89990234 65.85571289 C-44.56861336 61.16948912 -45.56293304 56.97039929 -47.1875 52.5 C-50.01310583 44.21656997 -49.32814114 35.63193508 -49 27 C-50.6396875 27.99 -50.6396875 27.99 -52.3125 29 C-54.93707538 30.58464929 -55.8256378 31 -59 31 C-59 31.66 -59 32.32 -59 33 C-60.86328125 34.40234375 -60.86328125 34.40234375 -63.3125 35.9375 C-65.65149527 37.41020073 -67.72518151 38.72131989 -69.66796875 40.69140625 C-71 42 -71 42 -73 42 C-73.33 43.32 -73.66 44.64 -74 46 C-76.31 46 -78.62 46 -81 46 C-81 44.68 -81 43.36 -81 42 C-79.515 41.505 -79.515 41.505 -78 41 C-76.30979445 39.35720946 -74.64578201 37.68729284 -73 36 C-59.68968471 24.53952086 -43.35921316 17.14921046 -27.1875 10.625 C-20.21434785 7.74109713 -13.47295869 4.40542203 -6.828125 0.83203125 C-4.47648193 -0.23826784 -2.5520128 -0.14177849 0 0 Z " fill="#001E00" transform="translate(326,131)"/>
<path d="M0 0 C1.32 0 2.64 0 4 0 C4 0.99 4 1.98 4 3 C4.66 3 5.32 3 6 3 C5.67 30.06 5.34 57.12 5 85 C5.66 85 6.32 85 7 85 C6.979375 86.175625 6.95875 87.35125 6.9375 88.5625 C6.92756284 91.37968448 7.12624192 93.81355906 7.5625 96.625 C8.00574328 100.0443053 7.73514232 102.65101833 7 106 C5.68 106 4.36 106 3 106 C1.29053617 94.61391211 0.72688128 83.53465985 0.8046875 72.03125 C0.80843051 70.37260104 0.81127136 68.71394984 0.81326294 67.05529785 C0.82079823 62.7482055 0.8403562 58.44125405 0.8626709 54.13421631 C0.88335072 49.715799 0.89231134 45.2973583 0.90234375 40.87890625 C0.92361466 32.25254043 0.95762384 23.62628788 1 15 C0.34 15 -0.32 15 -1 15 C-1.144375 15.86625 -1.28875 16.7325 -1.4375 17.625 C-1.95833333 20.75 -2.47916667 23.875 -3 27 C-3.66 27 -4.32 27 -5 27 C-5.02578125 27.53625 -5.0515625 28.0725 -5.078125 28.625 C-5.68449973 37.00399625 -7.84306544 44.91400347 -10 53 C-10.66 53 -11.32 53 -12 53 C-12.144375 54.2375 -12.28875 55.475 -12.4375 56.75 C-12.78688502 59.56504499 -13.20379366 62.2701497 -14 65 C-16.97 65.495 -16.97 65.495 -20 66 C-23 59.5 -23 59.5 -23 55 C-23.66 55 -24.32 55 -25 55 C-28 48.5 -28 48.5 -28 44 C-28.66 44 -29.32 44 -30 44 C-30.12375 45.2375 -30.2475 46.475 -30.375 47.75 C-30.75746305 50.8762197 -31.30549523 53.28879237 -33 56 C-33.66 56 -34.32 56 -35 56 C-35.144375 56.969375 -35.28875 57.93875 -35.4375 58.9375 C-36 62 -36 62 -37 63 C-37.3931648 64.67884238 -37.74085452 66.36850045 -38.0625 68.0625 C-38.23910156 68.98160156 -38.41570312 69.90070313 -38.59765625 70.84765625 C-38.73042969 71.55792969 -38.86320312 72.26820313 -39 73 C-39.66 73 -40.32 73 -41 73 C-41.11472656 73.65097656 -41.22945312 74.30195313 -41.34765625 74.97265625 C-42.18466391 78.85697323 -43.30317867 82.63107479 -44.4375 86.4375 C-44.76331055 87.54448242 -44.76331055 87.54448242 -45.09570312 88.67382812 C-46.03948312 91.86227404 -47.00788447 95.02291866 -48.08984375 98.16796875 C-49.02043057 101.06357151 -49.61346198 103.87884874 -50.125 106.875 C-50.29257813 107.84179688 -50.46015625 108.80859375 -50.6328125 109.8046875 C-50.81457031 110.89136719 -50.81457031 110.89136719 -51 112 C-52.32 112 -53.64 112 -55 112 C-55.36535179 102.27758301 -53.8437274 94.91744756 -50 86 C-49.51749153 84.34017085 -49.06162235 82.67248562 -48.625 81 C-45.94367873 70.83332351 -42.65393199 61.06301053 -38.125 51.56640625 C-36.97820814 48.95028732 -36.15172562 46.37185778 -35.375 43.625 C-33.39740151 36.75257211 -33.39740151 36.75257211 -31 34 C-27.8125 33.1875 -27.8125 33.1875 -25 33 C-24.45533613 37.084979 -24 40.8725485 -24 45 C-23.01 45 -22.02 45 -21 45 C-20.01 48.63 -19.02 52.26 -18 56 C-13.0410363 40.96714795 -13.0410363 40.96714795 -8.9375 25.6875 C-3.703125 3.703125 -3.703125 3.703125 0 0 Z " fill="#001E00" transform="translate(164,161)"/>
<path d="M0 0 C1.35795323 5.44068842 1.25353811 11.10983189 1.4375 16.6875 C1.69796763 23.54123041 2.04808701 30.17164671 3.59765625 36.87890625 C4.05487823 39.28930951 4.06452648 41.55229553 4 44 C4.66 44 5.32 44 6 44 C6.15855469 44.83402344 6.31710937 45.66804688 6.48046875 46.52734375 C7.79964261 52.88998893 9.28749952 58.26072963 12.671875 63.81640625 C22 79.15294118 22 79.15294118 22 86 C19.58343624 86.64622041 17.16675354 87.29199004 14.75 87.9375 C13.72712891 88.21110352 13.72712891 88.21110352 12.68359375 88.49023438 C9.46139106 89.35053121 6.23946777 90.20683134 3 91 C3 89.02 3 87.04 3 85 C2.34 84.67 1.68 84.34 1 84 C1 81.36 1 78.72 1 76 C0.34 76 -0.32 76 -1 76 C-2.85743168 69.88595404 -4.42765417 64.41481258 -4 58 C-4.66 57.67 -5.32 57.34 -6 57 C-5.67 55.68 -5.34 54.36 -5 53 C-5.66 53 -6.32 53 -7 53 C-8.34495828 45.90294338 -9.24091535 39.2274605 -9 32 C-9.66 32 -10.32 32 -11 32 C-11.33 29.03 -11.66 26.06 -12 23 C-12.66 23 -13.32 23 -14 23 C-14.10812003 20.24894578 -14.18734945 17.50214913 -14.25 14.75 C-14.28351563 13.97269531 -14.31703125 13.19539062 -14.3515625 12.39453125 C-14.45021604 6.6232991 -14.45021604 6.6232991 -12.2421875 3.56640625 C-10.12668755 2.08850472 -8.30014395 1.04967095 -5.875 0.1875 C-4.85019531 -0.19341797 -4.85019531 -0.19341797 -3.8046875 -0.58203125 C-2 -1 -2 -1 0 0 Z " fill="#008400" transform="translate(295,151)"/>
<path d="M0 0 C1.96915856 2.42862889 2.93356334 4.34335362 3.875 7.3125 C4.4009375 8.38371094 4.4009375 8.38371094 4.9375 9.4765625 C6.15059095 13.14616262 5.96568647 16.45750855 5.6875 20.25 C5.65591797 20.94029297 5.62433594 21.63058594 5.59179688 22.34179688 C5.28911419 26.96977119 4.19597383 30.31491974 1.875 34.3125 C0.885 34.3125 -0.105 34.3125 -1.125 34.3125 C-1.455 35.6325 -1.785 36.9525 -2.125 38.3125 C-2.785 38.3125 -3.445 38.3125 -4.125 38.3125 C-4.2796875 39.1478125 -4.2796875 39.1478125 -4.4375 40 C-5.26678408 42.7894101 -6.46799056 44.9264064 -8.125 47.3125 C-8.785 47.3125 -9.445 47.3125 -10.125 47.3125 C-10.455 48.6325 -10.785 49.9525 -11.125 51.3125 C-11.785 51.3125 -12.445 51.3125 -13.125 51.3125 C-14.79527792 62.30714496 -15.6416022 73.20707165 -16.125 84.3125 C-15.135 84.3125 -14.145 84.3125 -13.125 84.3125 C-13.125 84.9725 -13.125 85.6325 -13.125 86.3125 C-8.1880715 87.44586913 -8.1880715 87.44586913 -3.5 86 C-2.71625 85.443125 -1.9325 84.88625 -1.125 84.3125 C-0.238125 83.9825 0.64875 83.6525 1.5625 83.3125 C4.19363969 82.4233717 4.19363969 82.4233717 5.875 79.3125 C7.050625 78.9103125 7.050625 78.9103125 8.25 78.5 C11.87018652 76.86229657 13.4494383 74.922603 14.875 71.3125 C16.96362889 61.82664381 17.35993379 51.99032306 17.875 42.3125 C19.195 42.3125 20.515 42.3125 21.875 42.3125 C22.37 51.2225 22.37 51.2225 22.875 60.3125 C22.215 60.3125 21.555 60.3125 20.875 60.3125 C20.92720703 61.74142578 20.92720703 61.74142578 20.98046875 63.19921875 C21.00753906 64.45347656 21.03460938 65.70773438 21.0625 67 C21.11470703 68.86205078 21.11470703 68.86205078 21.16796875 70.76171875 C20.85712299 74.52916932 20.1522857 76.34044917 17.875 79.3125 C16.885 79.8075 16.885 79.8075 15.875 80.3125 C15.483125 81.09625 15.09125 81.88 14.6875 82.6875 C12.2592961 86.20420909 9.87606098 86.97881301 5.875 88.3125 C4.555 88.3125 3.235 88.3125 1.875 88.3125 C1.875 88.9725 1.875 89.6325 1.875 90.3125 C-2.79358276 92.64679138 -7.93560779 93.41375643 -13.125 93.3125 C-15.43359375 92.328125 -15.43359375 92.328125 -17.125 91.3125 C-17.125 90.6525 -17.125 89.9925 -17.125 89.3125 C-17.785 89.3125 -18.445 89.3125 -19.125 89.3125 C-23.59097385 80.3805523 -21.0266876 60.83724857 -18.125 51.3125 C-16.04828114 46.28818018 -12.57632747 42.45409296 -9.125 38.3125 C-8.39368906 37.05474892 -7.68493333 35.78359643 -7 34.5 C-5.125 31.3125 -5.125 31.3125 -2.125 30.3125 C0.23576482 26.21222426 0.52915088 21.92346593 -0.125 17.3125 C-1.77291203 11.58727985 -3.23119162 7.81835853 -8.125 4.3125 C-8.125 3.6525 -8.125 2.9925 -8.125 2.3125 C-10.765 2.6425 -13.405 2.9725 -16.125 3.3125 C-16.455 4.3025 -16.785 5.2925 -17.125 6.3125 C-17.785 6.3125 -18.445 6.3125 -19.125 6.3125 C-19.125 6.9725 -19.125 7.6325 -19.125 8.3125 C-19.785 8.3125 -20.445 8.3125 -21.125 8.3125 C-21.125 9.3025 -21.125 10.2925 -21.125 11.3125 C-21.71974121 11.58312256 -22.31448242 11.85374512 -22.92724609 12.13256836 C-26.6389369 14.12530349 -29.02920485 16.66039765 -31.125 20.3125 C-32.09501146 24.27704902 -32.32320492 28.1811875 -32.5 32.25 C-32.56832031 33.31541016 -32.63664063 34.38082031 -32.70703125 35.47851562 C-32.87094465 38.0894219 -33.00952844 40.69907878 -33.125 43.3125 C-34.445 43.3125 -35.765 43.3125 -37.125 43.3125 C-37.18885267 38.9776133 -37.16598277 34.64756639 -37.125 30.3125 C-37.14433594 29.1884375 -37.16367188 28.064375 -37.18359375 26.90625 C-37.04443985 19.11363144 -35.25460095 15.05182103 -29.9375 9.3359375 C-27.9165197 7.3494404 -27.9165197 7.3494404 -27.125 4.3125 C-25.47061387 3.61591637 -23.80245682 2.95153117 -22.125 2.3125 C-21.609375 1.796875 -21.09375 1.28125 -20.5625 0.75 C-15.97658748 -3.83591252 -5.16561284 -2.78943094 0 0 Z " fill="#001E00" transform="translate(284.125,12.6875)"/>
<path d="M0 0 C1.32 0 2.64 0 4 0 C4.04989482 4.80141735 4.08595085 9.60267969 4.10986328 14.40429688 C4.1198449 16.03355543 4.13343499 17.66279644 4.15087891 19.29199219 C4.24305653 28.13019953 4.21311399 36.37408325 2 45 C1.34 45 0.68 45 0 45 C0 46.98 0 48.96 0 51 C0.54269531 50.30132812 1.08539063 49.60265625 1.64453125 48.8828125 C2.35996094 47.97273438 3.07539062 47.06265625 3.8125 46.125 C4.87404297 44.76761719 4.87404297 44.76761719 5.95703125 43.3828125 C8 41 8 41 11 39 C13.76655324 38.85754103 16.42653306 38.81230555 19.1875 38.875 C19.93708984 38.88402344 20.68667969 38.89304688 21.45898438 38.90234375 C23.30612654 38.92587422 25.15310412 38.96174439 27 39 C27 39.66 27 40.32 27 41 C27.70125 41.103125 28.4025 41.20625 29.125 41.3125 C32.39137647 42.09359003 35.0471852 43.42058743 38 45 C38 45.66 38 46.32 38 47 C38.99 47.33 39.98 47.66 41 48 C41 48.66 41 49.32 41 50 C41.598125 50.04125 42.19625 50.0825 42.8125 50.125 C45 51 45 51 46.8125 53.625 C48.19648329 57.55842619 47.88612202 59.97217261 47 64 C47.66 64 48.32 64 49 64 C48.67 65.98 48.34 67.96 48 70 C46.35 69.67 44.7 69.34 43 69 C42.83564453 68.12988281 42.83564453 68.12988281 42.66796875 67.2421875 C41.6936018 62.4416479 40.63115888 58.20985421 38 54 C37.01 53.67 36.02 53.34 35 53 C35 52.34 35 51.68 35 51 C33.02 50.34 31.04 49.68 29 49 C29 48.34 29 47.68 29 47 C27.35 46.34 25.7 45.68 24 45 C24 44.34 24 43.68 24 43 C22.41590006 43.11487748 20.83271037 43.24234508 19.25 43.375 C17.92742187 43.47941406 17.92742187 43.47941406 16.578125 43.5859375 C14.00933618 43.99850055 12.24158985 44.71160957 10 46 C10 46.99 10 47.98 10 49 C9.01 49.66 8.02 50.32 7 51 C5.80767387 53.05003955 5.80767387 53.05003955 5 55 C4.34 55 3.68 55 3 55 C2.67 56.32 2.34 57.64 2 59 C-0.475 59.495 -0.475 59.495 -3 60 C-3 60.99 -3 61.98 -3 63 C-3.66 63 -4.32 63 -5 63 C-5 64.65 -5 66.3 -5 68 C-5.66 68 -6.32 68 -7 68 C-6.62746094 68.64066406 -6.25492188 69.28132813 -5.87109375 69.94140625 C-2.82690689 75.50720839 -1.24862487 78.80282648 -3 85 C-4.32 85 -5.64 85 -7 85 C-8.49821059 81.62902617 -9 79.79557881 -9 76 C-9.66 76 -10.32 76 -11 76 C-12.82183973 72.87684617 -13.58773895 69.70715167 -14.43798828 66.21582031 C-15.52129583 61.94470854 -16.84837722 57.74178672 -18.14453125 53.53125 C-20.94333481 44.2247989 -22.30271878 35.60852107 -22.125 25.875 C-22.11597656 24.91851562 -22.10695312 23.96203125 -22.09765625 22.9765625 C-22.07439827 20.65076475 -22.04172213 18.32552706 -22 16 C-20.68 16 -19.36 16 -18 16 C-17.93941406 17.2065625 -17.87882812 18.413125 -17.81640625 19.65625 C-17.73192182 21.27084124 -17.64727789 22.88542414 -17.5625 24.5 C-17.52318359 25.29148437 -17.48386719 26.08296875 -17.44335938 26.8984375 C-17.17294782 31.97385441 -16.6872858 36.96375445 -16 42 C-15.34 42 -14.68 42 -14 42 C-12.9551242 46.62730711 -12.48243721 51.28853878 -12 56 C-11.34 56 -10.68 56 -10 56 C-9.67 57.32 -9.34 58.64 -9 60 C-8.31111108 57.77091227 -7.6432195 55.5385929 -6.99609375 53.296875 C-6.3008583 50.99578199 -5.53714365 48.71475973 -4.72265625 46.453125 C0.39914066 31.4187727 -0.07375663 15.70871547 0 0 Z " fill="#001E00" transform="translate(84,63)"/>
<path d="M0 0 C0.36491677 4.5006402 0.36491677 4.5006402 -1.1875 6.625 C-3 8 -3 8 -5.375 9.3125 C-7.77333466 10.85428657 -8.95324159 12.00816642 -10.6875 14.1875 C-11.450625 15.115625 -12.21375 16.04375 -13 17 C-13.66 17 -14.32 17 -15 17 C-15 17.66 -15 18.32 -15 19 C-15.66 19 -16.32 19 -17 19 C-17 19.66 -17 20.32 -17 21 C-17.66 21 -18.32 21 -19 21 C-19 21.66 -19 22.32 -19 23 C-19.66 23 -20.32 23 -21 23 C-21.2475 23.515625 -21.495 24.03125 -21.75 24.5625 C-23.39581616 27.77184151 -25.1976096 30.87585664 -27 34 C-27.66 34 -28.32 34 -29 34 C-29.33 35.98 -29.66 37.96 -30 40 C-29.34 40 -28.68 40 -28 40 C-27.71125 41.134375 -27.4225 42.26875 -27.125 43.4375 C-26.75375 44.613125 -26.3825 45.78875 -26 47 C-25.34 47.33 -24.68 47.66 -24 48 C-24 48.66 -24 49.32 -24 50 C-23.51120361 49.72736328 -23.02240723 49.45472656 -22.51879883 49.17382812 C-20.28923742 47.93826301 -18.05112049 46.71906889 -15.8125 45.5 C-15.04357422 45.07074219 -14.27464844 44.64148438 -13.48242188 44.19921875 C-6.39400159 40.36599576 -6.39400159 40.36599576 -2 41 C-2 42.32 -2 43.64 -2 45 C-4.87354245 47.17457267 -6.36436591 48 -10 48 C-10 48.66 -10 49.32 -10 50 C-17.42857143 53.28571429 -17.42857143 53.28571429 -21 54 C-20.505 54.94875 -20.01 55.8975 -19.5 56.875 C-18 60 -18 60 -18 62 C-17.360625 62.268125 -16.72125 62.53625 -16.0625 62.8125 C-14 64 -14 64 -13 67 C-2.99485177 68.6675247 4.55652615 68.0337124 14 64 C14.67417969 63.49339844 15.34835938 62.98679687 16.04296875 62.46484375 C18.32744996 60.75490272 20.31979563 60.12789924 23.0625 59.375 C23.91972656 59.13523437 24.77695313 58.89546875 25.66015625 58.6484375 C26.43230469 58.43445313 27.20445312 58.22046875 28 58 C28.99 57.67 29.98 57.34 31 57 C31 56.01 31 55.02 31 54 C32.98 54 34.96 54 37 54 C36.8125 56.8125 36.8125 56.8125 36 60 C32.43573311 63.10436149 27.93990302 63.9254668 23.48046875 65.18359375 C21.22530645 65.92584402 19.4512161 66.76548407 17.4375 68 C7.79138581 73.61228462 -4.27966285 74.98640937 -15.25073242 72.48730469 C-15.82799072 72.32649414 -16.40524902 72.16568359 -17 72 C-17 71.34 -17 70.68 -17 70 C-17.639375 69.731875 -18.27875 69.46375 -18.9375 69.1875 C-21 68 -21 68 -22 65 C-22.66 65 -23.32 65 -24 65 C-26 61 -26 61 -28 57 C-28.37382813 56.31421875 -28.74765625 55.6284375 -29.1328125 54.921875 C-30 53 -30 53 -30 50 C-30.66 50 -31.32 50 -32 50 C-34.55676997 44.3171388 -34.98470113 39.1466891 -34 33 C-32.19813916 29.17667654 -29.76733842 26.17504943 -27 23 C-26.28972656 22.16597656 -25.57945313 21.33195312 -24.84765625 20.47265625 C-6.89859399 0 -6.89859399 0 0 0 Z " fill="#001E00" transform="translate(146,330)"/>
<path d="M0 0 C0.73943848 0.01184326 1.47887695 0.02368652 2.24072266 0.03588867 C9.90613652 0.34717866 19.99949584 1.942503 25.87109375 7.18359375 C26.28488281 7.65925781 26.69867188 8.13492187 27.125 8.625 C28.011875 9.2025 28.89875 9.78 29.8125 10.375 C32.125 12.625 32.125 12.625 32.4375 16.375 C32.334375 17.4475 32.23125 18.52 32.125 19.625 C32.785 19.625 33.445 19.625 34.125 19.625 C33.795 25.565 33.465 31.505 33.125 37.625 C30.60822887 38.88338557 28.71206712 38.83318973 25.8984375 38.94140625 C24.8671875 38.98330078 23.8359375 39.02519531 22.7734375 39.06835938 C21.69320312 39.10767578 20.61296875 39.14699219 19.5 39.1875 C18.41203125 39.23068359 17.3240625 39.27386719 16.203125 39.31835938 C13.5105483 39.4246453 10.81787747 39.52668057 8.125 39.625 C7.795 40.615 7.465 41.605 7.125 42.625 C3.74632353 45.09052067 2.41941798 45.625 -1.875 45.625 C-2.3125 43.4375 -2.3125 43.4375 -1.875 40.625 C4.4217978 34.20368925 12.03254235 34.42697481 20.50585938 34.01953125 C24.44424939 33.87781979 24.44424939 33.87781979 28.125 32.625 C28.43465758 24.90529711 28.43465758 24.90529711 26.125 17.625 C26.125 16.635 26.125 15.645 26.125 14.625 C24.145 13.965 22.165 13.305 20.125 12.625 C20.125 11.635 20.125 10.645 20.125 9.625 C19.49851563 9.56441406 18.87203125 9.50382812 18.2265625 9.44140625 C17.40929687 9.35761719 16.59203125 9.27382813 15.75 9.1875 C14.93789062 9.10628906 14.12578125 9.02507812 13.2890625 8.94140625 C11.125 8.625 11.125 8.625 9.125 7.625 C9.125 6.965 9.125 6.305 9.125 5.625 C6.83390403 5.54424335 4.54200733 5.48592269 2.25 5.4375 C0.97382813 5.40269531 -0.30234375 5.36789062 -1.6171875 5.33203125 C-2.69226563 5.42871094 -3.76734375 5.52539062 -4.875 5.625 C-5.865 7.11 -5.865 7.11 -6.875 8.625 C-7.535 8.625 -8.195 8.625 -8.875 8.625 C-8.80487073 13.70762865 -8.71635125 18.78952937 -8.61254883 23.87158203 C-8.57979818 25.59155013 -8.5516211 27.31161292 -8.52856445 29.03173828 C-8.36167808 41.1682838 -7.20279225 52.71253835 -4.875 64.625 C-4.657229 65.75107666 -4.43945801 66.87715332 -4.21508789 68.03735352 C-4.04098389 68.93252686 -3.86687988 69.8277002 -3.6875 70.75 C-2.87027691 75.11977968 -2.70748005 79.18572126 -2.875 83.625 C-4.195 83.625 -5.515 83.625 -6.875 83.625 C-7.50756056 80.77233613 -8.13102657 77.91811857 -8.75 75.0625 C-8.92402344 74.28197266 -9.09804687 73.50144531 -9.27734375 72.69726562 C-12.34580305 58.43461223 -13.2727642 44.51499915 -13.30053711 29.96923828 C-13.31262252 26.96959046 -13.36214662 23.97188396 -13.41210938 20.97265625 C-13.42155634 19.05209322 -13.4287996 17.13151778 -13.43359375 15.2109375 C-13.45312607 14.32135345 -13.47265839 13.43176941 -13.49278259 12.51522827 C-13.46047595 8.09202809 -13.30891048 6.20060585 -10.57006836 2.56738281 C-7.0661626 0.04205676 -4.17126459 -0.13399181 0 0 Z " fill="#001E00" transform="translate(199.875,426.375)"/>
<path d="M0 0 C0 1.32 0 2.64 0 4 C-0.87398438 4.32871094 -0.87398438 4.32871094 -1.765625 4.6640625 C-7.89133716 7.03344173 -13.70594658 9.79536394 -19.53125 12.828125 C-22 14 -22 14 -24 14 C-24 14.66 -24 15.32 -24 16 C-24.99 16 -25.98 16 -27 16 C-27 23.26 -27 30.52 -27 38 C-26.34 38 -25.68 38 -25 38 C-23.875 45.75 -23.875 45.75 -25 48 C-24.34 48 -23.68 48 -23 48 C-22.00749455 53.70690634 -21.89522488 59.21408489 -22 65 C-21.34 65 -20.68 65 -20 65 C-20 66.32 -20 67.64 -20 69 C-17.44098147 68.0495074 -15.12821986 67.08059534 -12.8125 65.625 C-9.46565922 63.69126977 -6.02189301 62.4010082 -2.40234375 61.0625 C0.05311124 59.97651015 1.86484505 58.6079024 4 57 C6.32548007 56.30643577 8.65880445 55.63850788 11 55 C11.99 54.34 12.98 53.68 14 53 C17.1875 52.875 17.1875 52.875 20 53 C20 54.32 20 55.64 20 57 C12.8971368 60.71367975 12.8971368 60.71367975 9.0625 61.9375 C5.5173462 63.16745132 2.4976868 64.9044593 -0.75390625 66.7578125 C-8.4245283 71 -8.4245283 71 -13 71 C-13 71.66 -13 72.32 -13 73 C-13.9075 73.4125 -14.815 73.825 -15.75 74.25 C-19.0198306 75.78016742 -19.0198306 75.78016742 -21 78.1875 C-23 80 -23 80 -26.25 80.25 C-27.1575 80.1675 -28.065 80.085 -29 80 C-29 78.68 -29 77.36 -29 76 C-27.515 75.505 -27.515 75.505 -26 75 C-25.71753405 68.55795403 -26.79256211 62.51437133 -27.9375 56.1875 C-28.11990234 55.13884766 -28.30230469 54.09019531 -28.49023438 53.00976562 C-29.26287338 47.85421412 -29.26287338 47.85421412 -31 43 C-31.084915 41.1136088 -31.107193 39.22421485 -31.09765625 37.3359375 C-31.09443359 36.21445312 -31.09121094 35.09296875 -31.08789062 33.9375 C-31.07951172 32.761875 -31.07113281 31.58625 -31.0625 30.375 C-31.05798828 29.19164062 -31.05347656 28.00828125 -31.04882812 26.7890625 C-31.03701467 23.85932493 -31.02054258 20.92968728 -31 18 C-32.68416016 18.94166016 -32.68416016 18.94166016 -34.40234375 19.90234375 C-35.03390381 20.25546631 -35.66546387 20.60858887 -36.31616211 20.97241211 C-38.08189295 21.95937247 -38.08189295 21.95937247 -39.5625 23.5625 C-42.68230476 26.68230476 -46.02998621 27.94611035 -50.375 28.1875 C-51.24125 28.125625 -52.1075 28.06375 -53 28 C-53 26.68 -53 25.36 -53 24 C-52.19949219 23.56300781 -52.19949219 23.56300781 -51.3828125 23.1171875 C-47.15431931 20.79078467 -42.98904535 18.3989542 -38.875 15.875 C-35.02366114 13.54283333 -31.15795261 11.73878018 -27 10 C-25.5129696 9.18078143 -24.03424189 8.34637716 -22.5625 7.5 C-18.47273438 5.17991149 -14.43605346 3.55261871 -10 2 C-9.113125 1.608125 -8.22625 1.21625 -7.3125 0.8125 C-4.74398721 -0.08995044 -2.70278046 -0.1544446 0 0 Z " fill="#001E00" transform="translate(288,414)"/>
<path d="M0 0 C0 1.32 0 2.64 0 4 C-0.66 4 -1.32 4 -2 4 C-3.90211476 9.73027026 -5.33657245 15.15429927 -5.7890625 21.1875 C-6 23 -6 23 -7 25 C-7.66 25 -8.32 25 -9 25 C-9.19916016 26.41152344 -9.19916016 26.41152344 -9.40234375 27.8515625 C-9.66724609 29.71941406 -9.66724609 29.71941406 -9.9375 31.625 C-10.11152344 32.85476562 -10.28554687 34.08453125 -10.46484375 35.3515625 C-10.93774301 38.57556184 -11.45151002 41.78812176 -12 45 C-10.865625 45.268125 -9.73125 45.53625 -8.5625 45.8125 C-7.386875 46.204375 -6.21125 46.59625 -5 47 C-4.67 47.99 -4.34 48.98 -4 50 C-1.99983534 51.20882096 -1.99983534 51.20882096 0 52 C0 52.66 0 53.32 0 54 C0.99 54 1.98 54 3 54 C3 54.99 3 55.98 3 57 C3.99 57 4.98 57 6 57 C7.3125 58.1875 7.3125 58.1875 9 60 C10.03125 60.804375 11.0625 61.60875 12.125 62.4375 C15.75344828 65.67155172 15.75344828 65.67155172 16 69 C16.99 69 17.98 69 19 69 C22.62870159 77.261959 22.62870159 77.261959 21 82 C19.68 82 18.36 82 17 82 C16.73445313 81.36191406 16.46890625 80.72382813 16.1953125 80.06640625 C15.84210938 79.24011719 15.48890625 78.41382813 15.125 77.5625 C14.77695313 76.73878906 14.42890625 75.91507812 14.0703125 75.06640625 C13.1755063 72.84253285 13.1755063 72.84253285 11 72 C11 71.34 11 70.68 11 70 C10.4225 69.731875 9.845 69.46375 9.25 69.1875 C6.90365177 67.94914955 4.94792248 66.80878516 3 65 C3 63.68 3 62.36 3 61 C1.68 61 0.36 61 -1 61 C-1.66 60.01 -2.32 59.02 -3 58 C-5.05925139 57.27617533 -5.05925139 57.27617533 -7 57 C-7 56.34 -7 55.68 -7 55 C-7.99 55 -8.98 55 -10 55 C-10.495 53.515 -10.495 53.515 -11 52 C-11.99 52 -12.98 52 -14 52 C-14.33 52.99 -14.66 53.98 -15 55 C-15.66 55 -16.32 55 -17 55 C-18.32 62.26 -19.64 69.52 -21 77 C-23.475 77.495 -23.475 77.495 -26 78 C-26 73.71 -26 69.42 -26 65 C-25.01 64.505 -25.01 64.505 -24 64 C-19.22035718 50.18706094 -20.26314123 34.43496821 -20 20 C-18.68 20 -17.36 20 -16 20 C-15.67 22.64 -15.34 25.28 -15 28 C-12.49862895 20.61563334 -10.14666374 13.21887374 -8.02734375 5.71484375 C-6.21982439 0.93831919 -5.19888674 0 0 0 Z " fill="#001E00" transform="translate(212,185)"/>
<path d="M0 0 C1.30324219 -0.02416992 1.30324219 -0.02416992 2.6328125 -0.04882812 C9.79652805 -0.05420629 15.77099739 1.22967091 21.625 5.625 C24.41561965 8.48206298 25.35462888 10.46240417 26.25 14.3125 C26.91 14.3125 27.57 14.3125 28.25 14.3125 C29.8071957 21.92545677 30.14962608 30.6498545 26.1875 37.5625 C25.2284375 38.92375 25.2284375 38.92375 24.25 40.3125 C23.59 40.3125 22.93 40.3125 22.25 40.3125 C21.92 41.6325 21.59 42.9525 21.25 44.3125 C20.26 44.3125 19.27 44.3125 18.25 44.3125 C18.25 45.3025 18.25 46.2925 18.25 47.3125 C16.93 47.3125 15.61 47.3125 14.25 47.3125 C14.25 47.9725 14.25 48.6325 14.25 49.3125 C11.28 49.8075 11.28 49.8075 8.25 50.3125 C8.58 48.3325 8.91 46.3525 9.25 44.3125 C10.03375 44.23 10.8175 44.1475 11.625 44.0625 C14.39749104 43.58443661 14.39749104 43.58443661 15.5625 41.25 C15.789375 40.610625 16.01625 39.97125 16.25 39.3125 C16.91 39.3125 17.57 39.3125 18.25 39.3125 C18.518125 38.755625 18.78625 38.19875 19.0625 37.625 C20.25 35.3125 20.25 35.3125 21.875 33.1875 C23.87182993 29.01231014 23.84521056 24.87320426 23.25 20.3125 C22.59 19.3225 21.93 18.3325 21.25 17.3125 C21.25 16.3225 21.25 15.3325 21.25 14.3125 C20.26 13.9825 19.27 13.6525 18.25 13.3125 C17.755 11.8275 17.755 11.8275 17.25 10.3125 C14.92730041 9.06751391 14.92730041 9.06751391 12.1875 8.125 C11.26839844 7.78082031 10.34929687 7.43664062 9.40234375 7.08203125 C8.69207031 6.82808594 7.98179687 6.57414062 7.25 6.3125 C7.25 5.6525 7.25 4.9925 7.25 4.3125 C-1.165 4.8075 -1.165 4.8075 -9.75 5.3125 C-10.58920996 33.33450377 -10.58920996 33.33450377 -3.75 60.3125 C-3.40247452 61.70002765 -3.08896996 63.09658584 -2.8125 64.5 C-2.11544913 67.86257339 -1.20460293 71.05341696 -0.125 74.3125 C1.38066122 79.13969528 1.49365463 83.27697106 1.25 88.3125 C-0.07 88.3125 -1.39 88.3125 -2.75 88.3125 C-5.35921219 78.63734671 -7.9058952 68.94571508 -10.4375 59.25 C-10.74695557 58.07268311 -11.05641113 56.89536621 -11.37524414 55.68237305 C-11.66778076 54.55871338 -11.96031738 53.43505371 -12.26171875 52.27734375 C-12.52428467 51.2730835 -12.78685059 50.26882324 -13.05737305 49.23413086 C-14.41689161 43.49942565 -14.89923748 38.06021268 -14.8828125 32.17578125 C-14.88376923 31.41452438 -14.88472595 30.65326752 -14.88571167 29.86894226 C-14.88638877 28.2696423 -14.88456745 26.67033952 -14.88037109 25.07104492 C-14.87499379 22.62217073 -14.8803434 20.17347808 -14.88671875 17.72460938 C-14.88605832 16.16666626 -14.88477789 14.60872326 -14.8828125 13.05078125 C-14.88483673 12.31950516 -14.88686096 11.58822906 -14.88894653 10.83479309 C-14.87453702 7.72111892 -14.74240293 5.2897088 -13.75 2.3125 C-9.45400964 -0.50461039 -4.95894275 -0.01807195 0 0 Z " fill="#001E00" transform="translate(211.75,16.6875)"/>
<path d="M0 0 C1.98 0 3.96 0 6 0 C6 1.32 6 2.64 6 4 C5.01 4 4.02 4 3 4 C3 4.66 3 5.32 3 6 C2.01 6 1.02 6 0 6 C-0.33 6.99 -0.66 7.98 -1 9 C-3.92079805 11.07530387 -5.37546731 12 -9 12 C-9.0825 12.556875 -9.165 13.11375 -9.25 13.6875 C-10 16 -10 16 -11.8125 18.25 C-15.95669139 23.45984061 -18.07150421 28.40674204 -19 35 C-18.39526855 35.04487549 -17.79053711 35.08975098 -17.16748047 35.13598633 C-14.40215196 35.34856136 -11.63875201 35.58035945 -8.875 35.8125 C-7.92367187 35.88275391 -6.97234375 35.95300781 -5.9921875 36.02539062 C4.17404552 36.90787613 4.17404552 36.90787613 8 40 C9.60689665 46.23281125 8.9454802 52.61699668 8.5625 59 C8.51029297 59.96550781 8.45808594 60.93101562 8.40429688 61.92578125 C8.27586364 64.2842825 8.14096811 66.64222045 8 69 C7.36191406 69.06058594 6.72382813 69.12117188 6.06640625 69.18359375 C5.24011719 69.26738281 4.41382813 69.35117187 3.5625 69.4375 C2.73878906 69.51871094 1.91507813 69.59992188 1.06640625 69.68359375 C-0.98662025 69.78930815 -0.98662025 69.78930815 -2 71 C-4.18292774 71.23481693 -6.37203174 71.41363323 -8.5625 71.5625 C-9.76003906 71.64628906 -10.95757812 71.73007812 -12.19140625 71.81640625 C-13.11824219 71.87699219 -14.04507813 71.93757813 -15 72 C-15 72.66 -15 73.32 -15 74 C-16.32 74 -17.64 74 -19 74 C-18.67 72.02 -18.34 70.04 -18 68 C-15.08444885 67.32810344 -12.16773049 66.66230692 -9.25 66 C-8.425 65.80921875 -7.6 65.6184375 -6.75 65.421875 C-5.55117187 65.15117187 -5.55117187 65.15117187 -4.328125 64.875 C-3.5949707 64.70742188 -2.86181641 64.53984375 -2.10644531 64.3671875 C0 64 0 64 4 64 C3.85888117 61.24968413 3.71228835 58.49984582 3.5625 55.75 C3.52318359 54.97269531 3.48386719 54.19539063 3.44335938 53.39453125 C3.40146484 52.64042969 3.35957031 51.88632812 3.31640625 51.109375 C3.27974854 50.41811523 3.24309082 49.72685547 3.20532227 49.01464844 C2.99324476 46.93371671 2.55491323 45.01427578 2 43 C1.01 43 0.02 43 -1 43 C-1 42.34 -1 41.68 -1 41 C-2.08539063 41.09539062 -3.17078125 41.19078125 -4.2890625 41.2890625 C-5.73432537 41.40168039 -7.17964091 41.51362382 -8.625 41.625 C-9.33785156 41.68945312 -10.05070313 41.75390625 -10.78515625 41.8203125 C-15.34488399 42.15497142 -18.68688582 41.78239103 -23 40 C-23.92956553 28.20828909 -21.74612087 21.28540332 -14.6875 11.9375 C-13.8521875 10.9784375 -13.8521875 10.9784375 -13 10 C-12.67 9.34 -12.34 8.68 -12 8 C-10.24317275 6.97784597 -8.48399924 5.95804552 -6.69140625 5 C-4.8257777 3.99165437 -4.8257777 3.99165437 -3 2 C-2.01 2 -1.02 2 0 2 C0 1.34 0 0.68 0 0 Z " fill="#001E00" transform="translate(206,313)"/>
<path d="M0 0 C0 1.32 0 2.64 0 4 C-0.99 4.33 -1.98 4.66 -3 5 C-3.33 5.66 -3.66 6.32 -4 7 C-4.66 7 -5.32 7 -6 7 C-6 12.28 -6 17.56 -6 23 C-5.34 23 -4.68 23 -4 23 C-1.25182249 30.07685195 0.73389574 35.4864518 -1 43 C-0.34 43 0.32 43 1 43 C0.67 44.98 0.34 46.96 0 49 C1.35448698 48.25057863 2.70856922 47.50042574 4.0625 46.75 C5.29613281 46.07130859 5.29613281 46.07130859 6.5546875 45.37890625 C8.03649697 44.5433172 9.50500531 43.68259707 10.9453125 42.77734375 C14.80753893 40.36128731 17.45146721 39.5562407 22 40 C22 41.32 22 42.64 22 44 C21.01 44 20.02 44 19 44 C19 44.66 19 45.32 19 46 C18.05125 46.37125 17.1025 46.7425 16.125 47.125 C11.20643833 49.24594035 6.24527882 51.71994554 2 55 C2 55.99 2 56.98 2 58 C2 59.32 2 60.64 2 62 C0.35 62 -1.3 62 -3 62 C-3 61.01 -3 60.02 -3 59 C-3.66 59 -4.32 59 -5 59 C-5.33 60.32 -5.66 61.64 -6 63 C-8.31 63 -10.62 63 -13 63 C-13 59 -13 59 -11.5390625 57.515625 C-10.90742188 57.09796875 -10.27578125 56.6803125 -9.625 56.25 C-8.99851563 55.82203125 -8.37203125 55.3940625 -7.7265625 54.953125 C-6 54 -6 54 -4 54 C-4.76995265 47.1514738 -5.59069162 40.65015537 -8.0625 34.1875 C-10.81212868 26.65413071 -10.81196203 18.93520227 -11 11 C-11.66 11 -12.32 11 -13 11 C-13 11.66 -13 12.32 -13 13 C-14.828125 14.5078125 -14.828125 14.5078125 -17.25 16.125 C-18.03890625 16.66382812 -18.8278125 17.20265625 -19.640625 17.7578125 C-22 19 -22 19 -26 19 C-25.72356074 15.60626695 -25.3358534 14.3063408 -22.77734375 11.97265625 C-21.84019531 11.34230469 -20.90304688 10.71195313 -19.9375 10.0625 C-16.40128327 7.64852822 -12.99798518 5.21382797 -9.6875 2.5 C-6.4176333 0.00546252 -4.18557336 -0.627836 0 0 Z " fill="#001E00" transform="translate(167,53)"/>
<path d="M0 0 C0 1.32 0 2.64 0 4 C-1.65 4.33 -3.3 4.66 -5 5 C-5.0825 5.94875 -5.165 6.8975 -5.25 7.875 C-5.4975 8.90625 -5.745 9.9375 -6 11 C-7.31647119 11.69937532 -8.65022151 12.36729133 -10 13 C-10.81171228 15.55519921 -10.81171228 15.55519921 -11 18 C-11.66 18 -12.32 18 -13 18 C-13.33 21.96 -13.66 25.92 -14 30 C-13.34 30 -12.68 30 -12 30 C-10.71428571 38.57142857 -10.71428571 38.57142857 -12 42 C-11.01 42.33 -10.02 42.66 -9 43 C-8.67 44.65 -8.34 46.3 -8 48 C-2.42343965 50.41148556 3.0268003 50.58632635 9 50 C11.68331902 48.86704308 13.31615384 47.61933237 15.44921875 45.6875 C19.55338038 42.04854561 19.55338038 42.04854561 22.875 41.6875 C23.57625 41.790625 24.2775 41.89375 25 42 C24.8125 44.8125 24.8125 44.8125 24 48 C21.59196729 49.85233285 20.07258075 51 17 51 C17 51.66 17 52.32 17 53 C12.27631377 55.35216343 7.67444476 55.53911816 2.5 55.8125 C1.65824219 55.87630859 0.81648438 55.94011719 -0.05078125 56.00585938 C-4.89771147 56.27682949 -8.11488083 56.28340855 -12 53 C-18.70356672 44.59522601 -18.76764694 31.03144039 -18.45703125 20.71875 C-17.78384451 15.24119636 -15.53658609 12.07790029 -12 8 C-10.57380883 5.68858673 -9.21328859 3.42657718 -8 1 C-5.07175348 0.02391783 -3.04386724 -0.08226668 0 0 Z " fill="#001E00" transform="translate(338,409)"/>
<path d="M0 0 C2.64 0 5.28 0 8 0 C8 1.32 8 2.64 8 4 C7.01 4 6.02 4 5 4 C5 4.66 5 5.32 5 6 C2.41958904 7.00816056 -0.16386944 8.0067111 -2.75 9 C-3.47960937 9.28617187 -4.20921875 9.57234375 -4.9609375 9.8671875 C-5.66992188 10.13789063 -6.37890625 10.40859375 -7.109375 10.6875 C-7.75874023 10.93886719 -8.40810547 11.19023437 -9.07714844 11.44921875 C-11 12 -11 12 -15 12 C-15 12.66 -15 13.32 -15 14 C-16.34578125 14.51046875 -16.34578125 14.51046875 -17.71875 15.03125 C-25.63483905 18.08818044 -33.26004634 21.48671189 -40.80664062 25.37109375 C-43.51864874 26.76693987 -46.10038751 28.0334625 -49 29 C-49.33 29.66 -49.66 30.32 -50 31 C-53.0625 31.625 -53.0625 31.625 -56 32 C-56.33 32.99 -56.66 33.98 -57 35 C-59.1796875 36.5 -59.1796875 36.5 -61.875 38 C-65.49881238 39.98745134 -65.49881238 39.98745134 -68.5703125 42.6875 C-70 44 -70 44 -74 44 C-73.91828946 41.22184153 -73.45693162 39.49264865 -71.55078125 37.4375 C-68.2344444 34.55998429 -64.82254909 32.16955489 -61 30 C-60.39671875 29.53207031 -59.7934375 29.06414062 -59.171875 28.58203125 C-55.38698369 25.82505107 -51.13078178 23.96496291 -46.92529297 21.93164062 C-45.58414065 21.28266304 -44.24474963 20.63003831 -42.90673828 19.97460938 C-32.17427586 14.72310694 -21.32460569 9.97742297 -10.1953125 5.62890625 C-9.46344727 5.34289551 -8.73158203 5.05688477 -7.97753906 4.76220703 C-6.32255478 4.12432296 -4.65836525 3.51039044 -2.9921875 2.90234375 C-0.82353207 2.17225722 -0.82353207 2.17225722 0 0 Z " fill="#001E00" transform="translate(110,331)"/>
<path d="M0 0 C1.32 0 2.64 0 4 0 C4 0.66 4 1.32 4 2 C4.66 2 5.32 2 6 2 C6.84212256 3.91282125 7.67338864 5.83042473 8.5 7.75 C8.9640625 8.81734375 9.428125 9.8846875 9.90625 10.984375 C11 14 11 14 11 18 C11.66 18.33 12.32 18.66 13 19 C13.81309902 22.91765889 14.37553268 26.17907588 13 30 C13.66 30 14.32 30 15 30 C18.42857143 38.42857143 18.42857143 38.42857143 18 43 C19.485 43.495 19.485 43.495 21 44 C21.75241109 47.65456815 22.40049704 51.31733897 23 55 C24.32 55.33 25.64 55.66 27 56 C27 56.99 27 57.98 27 59 C27.66 59 28.32 59 29 59 C29 59.99 29 60.98 29 62 C29.66 62 30.32 62 31 62 C30.67 63.98 30.34 65.96 30 68 C28.35 67.67 26.7 67.34 25 67 C24.67 65.68 24.34 64.36 24 63 C23.34 63 22.68 63 22 63 C22 62.01 22 61.02 22 60 C21.34 60 20.68 60 20 60 C16.82523652 53.62704304 14.40475235 48.15062486 14 41 C13.34 41 12.68 41 12 41 C10.38837612 36.97094031 8.95647384 33.13630343 8.125 28.875 C6.60249349 21.49471422 4.1872422 13.28086329 0 7 C-0.07905064 4.66800612 -0.08798769 2.33167378 0 0 Z " fill="#001E00" transform="translate(240,310)"/>
<path d="M0 0 C-0.1875 2.3125 -0.1875 2.3125 -1 5 C-5.03448276 8 -5.03448276 8 -8 8 C-8.33 10.31 -8.66 12.62 -9 15 C-8.33613281 14.57847656 -7.67226563 14.15695313 -6.98828125 13.72265625 C-5.66376953 12.90087891 -5.66376953 12.90087891 -4.3125 12.0625 C-3.44238281 11.51722656 -2.57226562 10.97195312 -1.67578125 10.41015625 C0.94624689 9.02832828 3.08310075 8.41519827 6 8 C5.72087372 11.43859819 5.34760044 12.6928044 2.71484375 15.01953125 C1.34005859 15.90705078 1.34005859 15.90705078 -0.0625 16.8125 C-0.98160156 17.41707031 -1.90070313 18.02164063 -2.84765625 18.64453125 C-3.55792969 19.09183594 -4.26820312 19.53914063 -5 20 C-4.67 21.32 -4.34 22.64 -4 24 C-3.11248047 23.80083984 -3.11248047 23.80083984 -2.20703125 23.59765625 C1.85446525 22.68994822 5.91374171 21.7908887 10 21 C9.6875 23.375 9.6875 23.375 9 26 C8.01 26.66 7.02 27.32 6 28 C5.67 28.99 5.34 29.98 5 31 C-2.51294612 31.36948915 -2.51294612 31.36948915 -4.8125 29.625 C-5.204375 29.08875 -5.59625 28.5525 -6 28 C-6.99 27.34 -7.98 26.68 -9 26 C-9 25.34 -9 24.68 -9 24 C-9.66 24 -10.32 24 -11 24 C-13.07182145 20.59336868 -13.24183505 17.95164035 -13.1875 14 C-13.18105469 12.96875 -13.17460938 11.9375 -13.16796875 10.875 C-12.89310404 6.17033884 -12.89310404 6.17033884 -12 4 C-10.29296875 2.734375 -10.29296875 2.734375 -8.1875 1.75 C-7.50042969 1.41484375 -6.81335937 1.0796875 -6.10546875 0.734375 C-4 0 -4 0 0 0 Z " fill="#001E00" transform="translate(70,156)"/>
<path d="M0 0 C1.32 0 2.64 0 4 0 C4.25 7.625 4.25 7.625 2 11 C1.34 11 0.68 11 0 11 C0.0825 11.721875 0.165 12.44375 0.25 13.1875 C-0.07743148 16.87110419 -1.46093936 18.38626111 -4 21 C-4.66 21 -5.32 21 -6 21 C-6.0825 21.5775 -6.165 22.155 -6.25 22.75 C-7.21797787 25.6539336 -8.68694284 27.03740604 -11 29 C-11.66 29 -12.32 29 -13 29 C-13 29.99 -13 30.98 -13 32 C-17.95 32.33 -22.9 32.66 -28 33 C-28 32.34 -28 31.68 -28 31 C-29.98 31.33 -31.96 31.66 -34 32 C-34 31.01 -34 30.02 -34 29 C-36.475 28.01 -36.475 28.01 -39 27 C-39 25.02 -39 23.04 -39 21 C-37.68 21 -36.36 21 -35 21 C-35 21.99 -35 22.98 -35 24 C-33.02 24.33 -31.04 24.66 -29 25 C-29 25.66 -29 26.32 -29 27 C-25.04 27.33 -21.08 27.66 -17 28 C-16.67 26.68 -16.34 25.36 -16 24 C-14.35697047 22.31002677 -12.68528688 20.64783606 -11 19 C-5.99718721 13.2487349 -2.91217227 7.0098306 0 0 Z " fill="#001E00" transform="translate(445,353)"/>
<path d="M0 0 C3.94496468 2.90273602 5.81331564 5.79692299 6.5625 10.625 C5.78526189 15.28842865 4.51098218 17.79121426 0.8125 20.75 C-2.88662192 22.39405419 -5.9592006 22.73061337 -10 23 C-11.93043686 21.06956314 -11.13256219 18.22475198 -11.13671875 15.66015625 C-11.13285156 14.82355469 -11.12898438 13.98695313 -11.125 13.125 C-11.12886719 12.29613281 -11.13273437 11.46726563 -11.13671875 10.61328125 C-11.13542969 9.81535156 -11.13414063 9.01742187 -11.1328125 8.1953125 C-11.13168457 7.46328613 -11.13055664 6.73125977 -11.12939453 5.97705078 C-11 4 -11 4 -10 1 C-6.2727156 -0.24242813 -3.91859249 -0.53133458 0 0 Z " fill="#001E00" transform="translate(29,174)"/>
<path d="M0 0 C0 1.32 0 2.64 0 4 C-1.06541016 4.36351562 -1.06541016 4.36351562 -2.15234375 4.734375 C-3.07144531 5.06953125 -3.99054687 5.4046875 -4.9375 5.75 C-5.85402344 6.07484375 -6.77054688 6.3996875 -7.71484375 6.734375 C-10.1788835 7.77820953 -10.1788835 7.77820953 -10.81640625 10.140625 C-10.87699219 10.75421875 -10.93757813 11.3678125 -11 12 C-9.80375 11.505 -8.6075 11.01 -7.375 10.5 C-3.78898524 9.14088765 -0.86595201 8.7100536 3 9 C3 10.32 3 11.64 3 13 C1.23141309 13.67260351 -0.53996016 14.33788395 -2.3125 15 C-3.29863281 15.37125 -4.28476562 15.7425 -5.30078125 16.125 C-8 17 -8 17 -11 17 C-10.67 18.65 -10.34 20.3 -10 22 C-8.948125 21.67 -7.89625 21.34 -6.8125 21 C-3.61126643 20.16033218 -1.2588992 19.80249096 2 20 C2 21.32 2 22.64 2 24 C-3.76173683 27.06475363 -7.62740199 27.19937786 -14 26 C-14.50688605 23.45953542 -15.00566874 20.91791124 -15.5 18.375 C-15.64308594 17.66214844 -15.78617188 16.94929688 -15.93359375 16.21484375 C-16.73049426 12.07855065 -17.16034056 8.23566321 -17 4 C-15.10751181 3.32389577 -13.2108398 2.65949561 -11.3125 2 C-10.25675781 1.62875 -9.20101562 1.2575 -8.11328125 0.875 C-5.21637944 0.0608143 -2.98299377 -0.17709796 0 0 Z " fill="#001E00" transform="translate(53,164)"/>
<path d="M0 0 C1.32 0 2.64 0 4 0 C4 2.97 4 5.94 4 9 C4.66 9 5.32 9 6 9 C6 13.95 6 18.9 6 24 C6.66 24 7.32 24 8 24 C7.67 26.31 7.34 28.62 7 31 C7.66 31 8.32 31 9 31 C9.12375 32.03125 9.2475 33.0625 9.375 34.125 C9.94177663 37.63901509 10.85779303 40.64476703 12 44 C12.81332639 47.69693813 13.25003945 50.38877491 12 54 C10.68 54 9.36 54 8 54 C5.90242549 49.39282741 4.96902824 44.68734002 4 39.75 C3.82629883 38.86828125 3.65259766 37.9865625 3.47363281 37.078125 C1.1163924 24.76563475 -0.43583747 12.56664695 0 0 Z " fill="#001E00" transform="translate(82,352)"/>
<path d="M0 0 C1.32 0 2.64 0 4 0 C4.70121643 2.39256249 5.38614901 4.78790489 6.0625 7.1875 C6.26166016 7.86103516 6.46082031 8.53457031 6.66601562 9.22851562 C7.76309811 13.17416316 8.21781251 16.05551294 7 20 C5.35 19.67 3.7 19.34 2 19 C2 20.98 2 22.96 2 25 C0.68 25 -0.64 25 -2 25 C-8.70387244 12.51480638 -8.70387244 12.51480638 -9 6 C-6.69 6.33 -4.38 6.66 -2 7 C-2 7.66 -2 8.32 -2 9 C-1.34 9 -0.68 9 0 9 C0 6.03 0 3.06 0 0 Z " fill="#001E00" transform="translate(29,201)"/>
<path d="M0 0 C-0.57221024 7.00957545 -3.09784404 11.14676606 -7 17 C-6.01 16.67 -5.02 16.34 -4 16 C-2.27204648 15.93197033 -0.54164635 15.91504355 1.1875 15.9375 C2.08855469 15.94652344 2.98960938 15.95554688 3.91796875 15.96484375 C4.60503906 15.97644531 5.29210937 15.98804688 6 16 C6 17.32 6 18.64 6 20 C-0.65637843 21.23839599 -7.2471936 21.09139136 -14 21 C-13.50506533 16.24583878 -12.27876594 13.44779417 -9.4375 9.625 C-8.47650391 8.31402344 -8.47650391 8.31402344 -7.49609375 6.9765625 C-7.00238281 6.32429687 -6.50867188 5.67203125 -6 5 C-8.31 5.33 -10.62 5.66 -13 6 C-12.67 4.35 -12.34 2.7 -12 1 C-8.0186217 -0.3271261 -4.14954773 -0.06915913 0 0 Z " fill="#001E00" transform="translate(89,153)"/>
<path d="M0 0 C0 1.32 0 2.64 0 4 C-1.98 4.33 -3.96 4.66 -6 5 C-4.75023244 8.65316671 -4.32901247 9.78065836 -1 12 C0.27363036 16.10302438 0.33813586 19.91796526 -0.9375 24 C-4.0553824 27.02340112 -6.7219817 26.78960566 -11 27 C-11.33 25.35 -11.66 23.7 -12 22 C-10.02 22 -8.04 22 -6 22 C-5.7497843 19.08365871 -5.7497843 19.08365871 -6 16 C-6.99 15.34 -7.98 14.68 -9 14 C-10.94510229 10.31454303 -11.62973985 7.13829042 -11 3 C-7.49047762 -0.09663739 -4.5654558 -0.31852017 0 0 Z " fill="#001E00" transform="translate(105,175)"/>
<path d="M0 0 C-0.33 2.31 -0.66 4.62 -1 7 C-2.65 7 -4.3 7 -6 7 C-6.33 7.99 -6.66 8.98 -7 10 C-9.46592576 11.55196049 -11.840135 12.8946727 -14.4375 14.1875 C-15.5193457 14.73083984 -15.5193457 14.73083984 -16.62304688 15.28515625 C-22.15112737 17.91334108 -26.85883705 19.06289359 -33 18 C-33 16.68 -33 15.36 -33 14 C-32.40574219 13.92523438 -31.81148437 13.85046875 -31.19921875 13.7734375 C-24.74204482 12.74912686 -19.86075335 10.5735723 -14.25 7.2421875 C-12 6 -12 6 -10 6 C-10 5.34 -10 4.68 -10 4 C-6.32547562 1.1605948 -4.73113419 0 0 0 Z " fill="#001E00" transform="translate(255,292)"/>
<path d="M0 0 C-0.33 1.65 -0.66 3.3 -1 5 C-2.65 5.33 -4.3 5.66 -6 6 C-5.566875 6.83144531 -5.566875 6.83144531 -5.125 7.6796875 C-4.568125 8.76636719 -4.568125 8.76636719 -4 9.875 C-3.62875 10.59429687 -3.2575 11.31359375 -2.875 12.0546875 C-2 14 -2 14 -2 16 C-1.34 16 -0.68 16 0 16 C0 17.98 0 19.96 0 22 C-1.32 22 -2.64 22 -4 22 C-5.00508801 20.21118264 -6.00392736 18.41885304 -7 16.625 C-7.8353125 15.12839844 -7.8353125 15.12839844 -8.6875 13.6015625 C-10 11 -10 11 -10 9 C-10.99 9.66 -11.98 10.32 -13 11 C-16.1875 11.125 -16.1875 11.125 -19 11 C-19 9.68 -19 8.36 -19 7 C-16.58757287 5.82379175 -14.17072309 4.6589044 -11.75 3.5 C-11.06808594 3.16613281 -10.38617188 2.83226562 -9.68359375 2.48828125 C-6.1479008 0.80625256 -3.98070714 0 0 0 Z " fill="#001E00" transform="translate(88,185)"/>
<path d="M0 0 C1.32 0 2.64 0 4 0 C5.76072355 5.07502671 6.44143433 8.64610104 5 14 C3.375 15.9375 3.375 15.9375 1 17 C-2.7441664 17.26274852 -5.43528609 17.18823797 -9 16 C-11.22085338 12.02584132 -11.17563129 8.4785979 -11 4 C-9.68 4 -8.36 4 -7 4 C-6.67 6.31 -6.34 8.62 -6 11 C-2.95086772 12.01111093 -2.95086772 12.01111093 0 11 C0 7.37 0 3.74 0 0 Z " fill="#001E00" transform="translate(53,197)"/>
<path d="M0 0 C1.75 0.125 1.75 0.125 4 1 C6.25 4.0625 6.25 4.0625 8 7 C6.3125 9.9375 6.3125 9.9375 4 13 C1.35546875 13.69140625 1.35546875 13.69140625 -1 14 C-1.02705729 12.22925083 -1.04642195 10.45838289 -1.0625 8.6875 C-1.07410156 7.70136719 -1.08570312 6.71523437 -1.09765625 5.69921875 C-1 3 -1 3 0 0 Z " fill="#008400" transform="translate(23,178)"/>
<path d="M0 0 C1.32 0 2.64 0 4 0 C4 2.31 4 4.62 4 7 C2.68 7 1.36 7 0 7 C0 4.69 0 2.38 0 0 Z " fill="#001E00" transform="translate(322,85)"/>
</svg>
